<svg xmlns="http://www.w3.org/2000/svg" xmlns:xlink="http://www.w3.org/1999/xlink" version="1.1" x="0px" y="0px" viewBox="0 0 100 100" enable-background="new 0 0 100 100" xml:space="preserve"><g><path fill="#000000" d="M79.3,55.6C71.4,55.6,65,62,65,70s6.5,14.4,14.4,14.4S93.7,77.9,93.7,70S87.3,55.6,79.3,55.6z M79.3,81.3   C73.1,81.3,68,76.2,68,70s5.1-11.4,11.4-11.4S90.7,63.7,90.7,70S85.6,81.3,79.3,81.3z"></path><path fill="#000000" d="M50.1,76.2c-22,0-34-4.8-34-7.3v-5.2v-2.2c0.6,0.4,1.3,0.8,2.1,1.1c1.7,0.8,3.7,1.4,5.9,2   c7.2,1.9,16.8,2.8,26,2.8c3.9,0,7.8-0.2,11.6-0.5c0.3-1.4,0.7-2.7,1.3-3.9c-3.8,0.4-8.1,0.6-12.9,0.6c-6,0-11.3-0.4-15.8-1   c-4.1-0.5-7.5-1.2-10.2-2c-5.2-1.5-8-3.2-8-4.4V51v-2.2c0.6,0.4,1.3,0.8,2.1,1.1c1.7,0.8,3.7,1.4,5.9,2c7.2,1.9,16.8,2.8,26,2.8   c9.2,0,18.8-0.9,26-2.8c2.2-0.6,4.2-1.2,5.9-2c0.8-0.3,1.5-0.7,2.1-1.1V51v1.4c1.3,0.3,2.6,0.7,3.8,1.3V30h-0.1   c-1.3-7.1-20.2-10.3-37.7-10.3c-17.6,0-36.4,3.2-37.7,10.3h-0.1v39.7h0.1C13.6,76.8,32.5,80,50.1,80c4.5,0,9.1-0.2,13.5-0.7   c-0.6-1.2-1.1-2.4-1.5-3.7C58.5,76,54.5,76.2,50.1,76.2z M50.1,23.5c22,0,34,4.8,34,7.3c0,1.2-2.8,2.9-8,4.4   c-2.7,0.8-6.1,1.5-10.2,2c-4.5,0.6-9.8,1-15.8,1c-6,0-11.3-0.4-15.8-1c-4.1-0.5-7.5-1.2-10.2-2c-5.2-1.5-8-3.2-8-4.4   C16.1,28.3,28.1,23.5,50.1,23.5z M16.1,38.2V36c0.6,0.4,1.3,0.8,2.1,1.1c1.7,0.8,3.7,1.4,5.9,2c7.2,1.9,16.8,2.8,26,2.8   c9.2,0,18.8-0.9,26-2.8c2.2-0.6,4.2-1.2,5.9-2c0.8-0.3,1.5-0.7,2.1-1.1v2.2v5.2c0,1.2-2.8,2.9-8,4.4c-2.7,0.8-6.1,1.5-10.2,2   c-4.5,0.6-9.8,1-15.8,1c-6,0-11.3-0.4-15.8-1c-4.1-0.5-7.5-1.2-10.2-2c-5.2-1.5-8-3.2-8-4.4V38.2z"></path><path fill="#000000" d="M83.8,62.6c-2.2,0-4,1.8-4,4v1.7h-6c-0.5,0-0.9,0.4-0.9,0.9v5.2c0,0.5,0.4,0.9,0.9,0.9h8.6   c0.5,0,0.9-0.4,0.9-0.9v-5.2c0-0.5-0.4-0.9-0.9-0.9h-0.9v-1.7c0-1.3,1-2.3,2.3-2.3s2.3,1,2.3,2.3V69c0,0.3,0.3,0.6,0.6,0.6h0.6   c0.3,0,0.6-0.3,0.6-0.6v-2.3C87.8,64.5,86,62.6,83.8,62.6z"></path></g></svg>