<svg xmlns="http://www.w3.org/2000/svg" xmlns:xlink="http://www.w3.org/1999/xlink" version="1.1" x="0px" y="0px" viewBox="0 0 100 100" enable-background="new 0 0 100 100" xml:space="preserve"><g><path fill="none" d="M29.5,62.8V68c0,2.5,7.4,4.5,16.5,4.5s16.5-2,16.5-4.5v-5.2c-2.4,2.2-8.9,3.7-16.5,3.7S31.9,64.9,29.5,62.8z"></path><path fill="none" d="M29.5,41.8V47c0,2.5,7.4,4.5,16.5,4.5s16.5-2,16.5-4.5v-5.2c-2.4,2.2-8.9,3.7-16.5,3.7S31.9,43.9,29.5,41.8z"></path><path fill="none" d="M29.5,48.8V54c0,2.5,7.4,4.5,16.5,4.5s16.5-2,16.5-4.5v-5.2c-2.4,2.2-8.9,3.7-16.5,3.7S31.9,50.9,29.5,48.8z"></path><path fill="none" d="M29.5,55.8V61c0,2.5,7.4,4.5,16.5,4.5s16.5-2,16.5-4.5v-5.2c-2.4,2.2-8.9,3.7-16.5,3.7S31.9,57.9,29.5,55.8z"></path><path fill="none" d="M46,35.5c-9.1,0-16.5,2-16.5,4.5s7.4,4.5,16.5,4.5s16.5-2,16.5-4.5S55.1,35.5,46,35.5z"></path><path d="M52.5,28.5c-9.1,0-16.6,2.2-17.4,5c0.4-0.2,0.8-0.3,1.3-0.4c1.6-2,8.2-3.6,16.1-3.6c9.1,0,16.5,2,16.5,4.5   c0,1-1.1,1.9-3.1,2.6c0,0.1,0.1,0.3,0.1,0.4v0.5c1.3-0.5,2.3-1.1,3-1.7V41c0,1-1.1,1.9-3,2.6v0.9c1.3-0.5,2.3-1.1,3-1.7V48   c0,1-1.1,1.9-3,2.6v0.9c1.3-0.5,2.3-1.1,3-1.7V55c0,1-1.1,1.9-3,2.6v0.9c1.3-0.5,2.3-1.1,3-1.7V62c0,1-1.1,1.9-3,2.6V65   c0,0.2,0,0.3-0.1,0.5c2.5-1,4.1-2.2,4.1-3.5V34C70,31,62.2,28.5,52.5,28.5z"></path><path d="M46,34.5c-9.7,0-17.5,2.5-17.5,5.5v28c0,3,7.8,5.5,17.5,5.5S63.5,71,63.5,68V40C63.5,37,55.7,34.5,46,34.5z M62.5,68   c0,2.5-7.4,4.5-16.5,4.5s-16.5-2-16.5-4.5v-5.2c2.4,2.1,8.9,3.7,16.5,3.7s14.1-1.5,16.5-3.7V68z M62.5,61c0,2.5-7.4,4.5-16.5,4.5   s-16.5-2-16.5-4.5v-5.2c2.4,2.1,8.9,3.7,16.5,3.7s14.1-1.5,16.5-3.7V61z M62.5,54c0,2.5-7.4,4.5-16.5,4.5s-16.5-2-16.5-4.5v-5.2   c2.4,2.1,8.9,3.7,16.5,3.7s14.1-1.5,16.5-3.7V54z M62.5,47c0,2.5-7.4,4.5-16.5,4.5s-16.5-2-16.5-4.5v-5.2c2.4,2.1,8.9,3.7,16.5,3.7   s14.1-1.5,16.5-3.7V47z M46,44.5c-9.1,0-16.5-2-16.5-4.5s7.4-4.5,16.5-4.5s16.5,2,16.5,4.5S55.1,44.5,46,44.5z"></path></g></svg>