<svg xmlns="http://www.w3.org/2000/svg" xmlns:xlink="http://www.w3.org/1999/xlink" xmlns:sketch="http://www.bohemiancoding.com/sketch/ns" viewBox="0 0 100 100" version="1.1" x="0px" y="0px"><title>layers-3</title><desc>Created with Sketch.</desc><g stroke="none" stroke-width="1" fill="none" fill-rule="evenodd" sketch:type="MSPage"><path d="M50.5,32.74878 C71.9326708,32.74878 95,28.4070902 95,18.8740312 C95,9.34168979 71.9326708,5 50.5,5 C29.0673292,5 6,9.34168979 6,18.8740312 C6,28.4070902 29.0673292,32.74878 50.5,32.74878 L50.5,32.74878 Z M21.835798,13.8670941 C29.4547715,11.8512583 39.6342018,10.7410774 50.5,10.7410774 C61.3657982,10.7410774 71.5452285,11.8512583 79.164202,13.8670941 C87.410774,16.0479858 89.1956206,18.4075687 89.1956206,18.8740312 C89.1956206,19.3412114 87.410774,21.7007942 79.164202,23.881686 C71.5452285,25.8975218 61.3657982,27.0077026 50.5,27.0077026 C39.6342018,27.0077026 29.4547715,25.8975218 21.835798,23.881686 C13.589226,21.7007942 11.8043794,19.3412114 11.8043794,18.8740312 C11.8043794,18.4075687 13.589226,16.0479858 21.835798,13.8670941 L21.835798,13.8670941 Z M92.0978103,36.7546168 C90.4950761,36.7546168 89.1956206,38.0391829 89.1956206,39.6244379 C89.1956206,40.091618 87.410774,42.4512008 79.164202,44.6328103 C71.5452285,46.6479284 61.3657982,47.7573916 50.5,47.7573916 C39.6342018,47.7573916 29.4547715,46.6479284 21.835798,44.6328103 C13.589226,42.4512008 11.8043794,40.091618 11.8043794,39.6244379 C11.8043794,38.0391829 10.5049239,36.7546168 8.90218969,36.7546168 C7.29945543,36.7546168 6,38.0391829 6,39.6244379 C6,49.1574969 29.0673292,53.4991867 50.5,53.4991867 C71.9326708,53.4991867 95,49.1574969 95,39.6244379 C95,38.0391829 93.7005446,36.7546168 92.0978103,36.7546168 L92.0978103,36.7546168 Z M92.0978103,57.5043058 C90.4950761,57.5043058 89.1956206,58.7895895 89.1956206,60.3748445 C89.1956206,60.8420247 87.410774,63.2016075 79.164202,65.3832169 C71.5452285,67.3983351 61.3657982,68.5085159 50.5,68.5085159 C39.6342018,68.5085159 29.4547715,67.3983351 21.835798,65.3832169 C13.589226,63.2016075 11.8043794,60.8420247 11.8043794,60.3748445 C11.8043794,58.7895895 10.5049239,57.5043058 8.90218969,57.5043058 C7.29945543,57.5043058 6,58.7895895 6,60.3748445 C6,69.9071859 29.0673292,74.2495933 50.5,74.2495933 C71.9326708,74.2495933 95,69.9071859 95,60.3748445 C95,58.7895895 93.7005446,57.5043058 92.0978103,57.5043058 L92.0978103,57.5043058 Z M92.0978103,78.2547125 C90.4950761,78.2547125 89.1956206,79.5399962 89.1956206,81.1252512 C89.1956206,81.5924313 87.410774,83.9520142 79.164202,86.1336236 C71.5452285,88.1487417 61.3657982,89.2589226 50.5,89.2589226 C39.6342018,89.2589226 29.4547715,88.1487417 21.835798,86.1336236 C13.589226,83.9520142 11.8043794,81.5924313 11.8043794,81.1252512 C11.8043794,79.5399962 10.5049239,78.2547125 8.90218969,78.2547125 C7.29945543,78.2547125 6,79.5399962 6,81.1252512 C6,90.6575926 29.0673292,95 50.5,95 C71.9326708,95 95,90.6575926 95,81.1252512 C95,79.5399962 93.7005446,78.2547125 92.0978103,78.2547125 L92.0978103,78.2547125 Z" fill="#000000" sketch:type="MSShapeGroup"></path></g></svg>